<mxfile host="65bd71144e">
    <diagram id="l0sDQUlsVl_QQi9vXE9V" name="Page-1">
        <mxGraphModel dx="816" dy="491" grid="1" gridSize="10" guides="1" tooltips="1" connect="1" arrows="1" fold="1" page="1" pageScale="1" pageWidth="850" pageHeight="1100" math="0" shadow="0">
            <root>
                <mxCell id="0"/>
                <mxCell id="1" parent="0"/>
                <mxCell id="2" value="Python Web开发框架对比" style="text;html=1;strokeColor=none;fillColor=none;align=center;verticalAlign=middle;whiteSpace=wrap;rounded=0;fontSize=22;fontStyle=1" vertex="1" parent="1">
                    <mxGeometry x="175" y="40" width="500" height="30" as="geometry"/>
                </mxCell>
                <mxCell id="3" value="Django" style="rounded=1;whiteSpace=wrap;html=1;fontSize=18;fillColor=#dae8fc;strokeColor=#6c8ebf;fontStyle=1" vertex="1" parent="1">
                    <mxGeometry x="125" y="100" width="140" height="60" as="geometry"/>
                </mxCell>
                <mxCell id="4" value="Flask" style="rounded=1;whiteSpace=wrap;html=1;fontSize=18;fillColor=#d5e8d4;strokeColor=#82b366;fontStyle=1" vertex="1" parent="1">
                    <mxGeometry x="305" y="100" width="140" height="60" as="geometry"/>
                </mxCell>
                <mxCell id="5" value="FastAPI" style="rounded=1;whiteSpace=wrap;html=1;fontSize=18;fillColor=#ffe6cc;strokeColor=#d79b00;fontStyle=1" vertex="1" parent="1">
                    <mxGeometry x="485" y="100" width="140" height="60" as="geometry"/>
                </mxCell>
                <mxCell id="6" value="Pyramid" style="rounded=1;whiteSpace=wrap;html=1;fontSize=18;fillColor=#fff2cc;strokeColor=#d6b656;fontStyle=1" vertex="1" parent="1">
                    <mxGeometry x="665" y="100" width="140" height="60" as="geometry"/>
                </mxCell>
                <mxCell id="7" value="&lt;b&gt;适用项目&lt;/b&gt;" style="text;html=1;strokeColor=none;fillColor=none;align=center;verticalAlign=middle;whiteSpace=wrap;rounded=0;fontSize=16;" vertex="1" parent="1">
                    <mxGeometry x="45" y="190" width="70" height="30" as="geometry"/>
                </mxCell>
                <mxCell id="8" value="&lt;b&gt;主要特点&lt;/b&gt;" style="text;html=1;strokeColor=none;fillColor=none;align=center;verticalAlign=middle;whiteSpace=wrap;rounded=0;fontSize=16;" vertex="1" parent="1">
                    <mxGeometry x="45" y="260" width="70" height="30" as="geometry"/>
                </mxCell>
                <mxCell id="9" value="&lt;b&gt;性能&lt;/b&gt;" style="text;html=1;strokeColor=none;fillColor=none;align=center;verticalAlign=middle;whiteSpace=wrap;rounded=0;fontSize=16;" vertex="1" parent="1">
                    <mxGeometry x="45" y="330" width="70" height="30" as="geometry"/>
                </mxCell>
                <mxCell id="10" value="&lt;b&gt;易用性&lt;/b&gt;" style="text;html=1;strokeColor=none;fillColor=none;align=center;verticalAlign=middle;whiteSpace=wrap;rounded=0;fontSize=16;" vertex="1" parent="1">
                    <mxGeometry x="45" y="400" width="70" height="30" as="geometry"/>
                </mxCell>
                <mxCell id="11" value="&lt;b&gt;生态系统&lt;/b&gt;" style="text;html=1;strokeColor=none;fillColor=none;align=center;verticalAlign=middle;whiteSpace=wrap;rounded=0;fontSize=16;" vertex="1" parent="1">
                    <mxGeometry x="45" y="470" width="70" height="30" as="geometry"/>
                </mxCell>
                <mxCell id="12" value="大型应用&lt;br&gt;企业级网站&lt;br&gt;内容管理系统" style="rounded=0;whiteSpace=wrap;html=1;fontSize=14;fillColor=#dae8fc;strokeColor=#6c8ebf;align=center;" vertex="1" parent="1">
                    <mxGeometry x="125" y="170" width="140" height="70" as="geometry"/>
                </mxCell>
                <mxCell id="13" value="中小型应用&lt;br&gt;快速原型&lt;br&gt;微服务架构" style="rounded=0;whiteSpace=wrap;html=1;fontSize=14;fillColor=#d5e8d4;strokeColor=#82b366;align=center;" vertex="1" parent="1">
                    <mxGeometry x="305" y="170" width="140" height="70" as="geometry"/>
                </mxCell>
                <mxCell id="14" value="API开发&lt;br&gt;高性能服务&lt;br&gt;微服务架构" style="rounded=0;whiteSpace=wrap;html=1;fontSize=14;fillColor=#ffe6cc;strokeColor=#d79b00;align=center;" vertex="1" parent="1">
                    <mxGeometry x="485" y="170" width="140" height="70" as="geometry"/>
                </mxCell>
                <mxCell id="15" value="复杂结构应用&lt;br&gt;资源受限场景&lt;br&gt;中大型项目" style="rounded=0;whiteSpace=wrap;html=1;fontSize=14;fillColor=#fff2cc;strokeColor=#d6b656;align=center;" vertex="1" parent="1">
                    <mxGeometry x="665" y="170" width="140" height="70" as="geometry"/>
                </mxCell>
                <mxCell id="16" value="• 全栈框架&lt;br&gt;• 内置ORM&lt;br&gt;• 管理面板&lt;br&gt;• 安全性高" style="rounded=0;whiteSpace=wrap;html=1;fontSize=14;fillColor=#dae8fc;strokeColor=#6c8ebf;align=left;" vertex="1" parent="1">
                    <mxGeometry x="125" y="240" width="140" height="70" as="geometry"/>
                </mxCell>
                <mxCell id="17" value="• 轻量灵活&lt;br&gt;• 极简设计&lt;br&gt;• 易于扩展&lt;br&gt;• 蓝图机制" style="rounded=0;whiteSpace=wrap;html=1;fontSize=14;fillColor=#d5e8d4;strokeColor=#82b366;align=left;" vertex="1" parent="1">
                    <mxGeometry x="305" y="240" width="140" height="70" as="geometry"/>
                </mxCell>
                <mxCell id="18" value="• 异步支持&lt;br&gt;• 自动文档&lt;br&gt;• 数据验证&lt;br&gt;• OpenAPI" style="rounded=0;whiteSpace=wrap;html=1;fontSize=14;fillColor=#ffe6cc;strokeColor=#d79b00;align=left;" vertex="1" parent="1">
                    <mxGeometry x="485" y="240" width="140" height="70" as="geometry"/>
                </mxCell>
                <mxCell id="19" value="• 配置灵活&lt;br&gt;• 渲染器系统&lt;br&gt;• 资源定位&lt;br&gt;• 视图预定义" style="rounded=0;whiteSpace=wrap;html=1;fontSize=14;fillColor=#fff2cc;strokeColor=#d6b656;align=left;" vertex="1" parent="1">
                    <mxGeometry x="665" y="240" width="140" height="70" as="geometry"/>
                </mxCell>
                <mxCell id="20" value="中等&lt;br&gt;(一体化带来开销)" style="rounded=0;whiteSpace=wrap;html=1;fontSize=14;fillColor=#dae8fc;strokeColor=#6c8ebf;align=center;" vertex="1" parent="1">
                    <mxGeometry x="125" y="310" width="140" height="70" as="geometry"/>
                </mxCell>
                <mxCell id="21" value="良好&lt;br&gt;(简单应用性能高)" style="rounded=0;whiteSpace=wrap;html=1;fontSize=14;fillColor=#d5e8d4;strokeColor=#82b366;align=center;" vertex="1" parent="1">
                    <mxGeometry x="305" y="310" width="140" height="70" as="geometry"/>
                </mxCell>
                <mxCell id="22" value="极佳&lt;br&gt;(异步处理性能高)" style="rounded=0;whiteSpace=wrap;html=1;fontSize=14;fillColor=#ffe6cc;strokeColor=#d79b00;align=center;" vertex="1" parent="1">
                    <mxGeometry x="485" y="310" width="140" height="70" as="geometry"/>
                </mxCell>
                <mxCell id="23" value="良好&lt;br&gt;(资源消耗较少)" style="rounded=0;whiteSpace=wrap;html=1;fontSize=14;fillColor=#fff2cc;strokeColor=#d6b656;align=center;" vertex="1" parent="1">
                    <mxGeometry x="665" y="310" width="140" height="70" as="geometry"/>
                </mxCell>
                <mxCell id="24" value="适中&lt;br&gt;(约定胜于配置)" style="rounded=0;whiteSpace=wrap;html=1;fontSize=14;fillColor=#dae8fc;strokeColor=#6c8ebf;align=center;" vertex="1" parent="1">
                    <mxGeometry x="125" y="380" width="140" height="70" as="geometry"/>
                </mxCell>
                <mxCell id="25" value="简单&lt;br&gt;(入门门槛低)" style="rounded=0;whiteSpace=wrap;html=1;fontSize=14;fillColor=#d5e8d4;strokeColor=#82b366;align=center;" vertex="1" parent="1">
                    <mxGeometry x="305" y="380" width="140" height="70" as="geometry"/>
                </mxCell>
                <mxCell id="26" value="简单&lt;br&gt;(类型提示易用)" style="rounded=0;whiteSpace=wrap;html=1;fontSize=14;fillColor=#ffe6cc;strokeColor=#d79b00;align=center;" vertex="1" parent="1">
                    <mxGeometry x="485" y="380" width="140" height="70" as="geometry"/>
                </mxCell>
                <mxCell id="27" value="复杂&lt;br&gt;(配置较多)" style="rounded=0;whiteSpace=wrap;html=1;fontSize=14;fillColor=#fff2cc;strokeColor=#d6b656;align=center;" vertex="1" parent="1">
                    <mxGeometry x="665" y="380" width="140" height="70" as="geometry"/>
                </mxCell>
                <mxCell id="28" value="丰富&lt;br&gt;(插件众多)" style="rounded=0;whiteSpace=wrap;html=1;fontSize=14;fillColor=#dae8fc;strokeColor=#6c8ebf;align=center;" vertex="1" parent="1">
                    <mxGeometry x="125" y="450" width="140" height="70" as="geometry"/>
                </mxCell>
                <mxCell id="29" value="良好&lt;br&gt;(扩展丰富)" style="rounded=0;whiteSpace=wrap;html=1;fontSize=14;fillColor=#d5e8d4;strokeColor=#82b366;align=center;" vertex="1" parent="1">
                    <mxGeometry x="305" y="450" width="140" height="70" as="geometry"/>
                </mxCell>
                <mxCell id="30" value="快速成长&lt;br&gt;(新兴生态)" style="rounded=0;whiteSpace=wrap;html=1;fontSize=14;fillColor=#ffe6cc;strokeColor=#d79b00;align=center;" vertex="1" parent="1">
                    <mxGeometry x="485" y="450" width="140" height="70" as="geometry"/>
                </mxCell>
                <mxCell id="31" value="中等&lt;br&gt;(社区较小)" style="rounded=0;whiteSpace=wrap;html=1;fontSize=14;fillColor=#fff2cc;strokeColor=#d6b656;align=center;" vertex="1" parent="1">
                    <mxGeometry x="665" y="450" width="140" height="70" as="geometry"/>
                </mxCell>
                <mxCell id="32" value="&lt;b&gt;开发年份&lt;/b&gt;" style="text;html=1;strokeColor=none;fillColor=none;align=center;verticalAlign=middle;whiteSpace=wrap;rounded=0;fontSize=16;" vertex="1" parent="1">
                    <mxGeometry x="45" y="540" width="70" height="30" as="geometry"/>
                </mxCell>
                <mxCell id="33" value="2005" style="rounded=0;whiteSpace=wrap;html=1;fontSize=14;fillColor=#dae8fc;strokeColor=#6c8ebf;align=center;" vertex="1" parent="1">
                    <mxGeometry x="125" y="520" width="140" height="70" as="geometry"/>
                </mxCell>
                <mxCell id="34" value="2010" style="rounded=0;whiteSpace=wrap;html=1;fontSize=14;fillColor=#d5e8d4;strokeColor=#82b366;align=center;" vertex="1" parent="1">
                    <mxGeometry x="305" y="520" width="140" height="70" as="geometry"/>
                </mxCell>
                <mxCell id="35" value="2018" style="rounded=0;whiteSpace=wrap;html=1;fontSize=14;fillColor=#ffe6cc;strokeColor=#d79b00;align=center;" vertex="1" parent="1">
                    <mxGeometry x="485" y="520" width="140" height="70" as="geometry"/>
                </mxCell>
                <mxCell id="36" value="2008" style="rounded=0;whiteSpace=wrap;html=1;fontSize=14;fillColor=#fff2cc;strokeColor=#d6b656;align=center;" vertex="1" parent="1">
                    <mxGeometry x="665" y="520" width="140" height="70" as="geometry"/>
                </mxCell>
                <mxCell id="37" value="&lt;b&gt;适合用户&lt;/b&gt;" style="text;html=1;strokeColor=none;fillColor=none;align=center;verticalAlign=middle;whiteSpace=wrap;rounded=0;fontSize=16;" vertex="1" parent="1">
                    <mxGeometry x="45" y="610" width="70" height="30" as="geometry"/>
                </mxCell>
                <mxCell id="38" value="全栈开发者&lt;br&gt;企业级应用团队" style="rounded=0;whiteSpace=wrap;html=1;fontSize=14;fillColor=#dae8fc;strokeColor=#6c8ebf;align=center;" vertex="1" parent="1">
                    <mxGeometry x="125" y="590" width="140" height="70" as="geometry"/>
                </mxCell>
                <mxCell id="39" value="初学者&lt;br&gt;快速原型开发者" style="rounded=0;whiteSpace=wrap;html=1;fontSize=14;fillColor=#d5e8d4;strokeColor=#82b366;align=center;" vertex="1" parent="1">
                    <mxGeometry x="305" y="590" width="140" height="70" as="geometry"/>
                </mxCell>
                <mxCell id="40" value="API开发者&lt;br&gt;性能要求高场景" style="rounded=0;whiteSpace=wrap;html=1;fontSize=14;fillColor=#ffe6cc;strokeColor=#d79b00;align=center;" vertex="1" parent="1">
                    <mxGeometry x="485" y="590" width="140" height="70" as="geometry"/>
                </mxCell>
                <mxCell id="41" value="有经验的开发者&lt;br&gt;需要灵活配置" style="rounded=0;whiteSpace=wrap;html=1;fontSize=14;fillColor=#fff2cc;strokeColor=#d6b656;align=center;" vertex="1" parent="1">
                    <mxGeometry x="665" y="590" width="140" height="70" as="geometry"/>
                </mxCell>
                <mxCell id="42" value="实际项目用法示例：" style="text;html=1;strokeColor=none;fillColor=none;align=left;verticalAlign=middle;whiteSpace=wrap;rounded=0;fontSize=16;fontStyle=1" vertex="1" parent="1">
                    <mxGeometry x="125" y="670" width="185" height="30" as="geometry"/>
                </mxCell>
                <mxCell id="43" value="# Django示例 - 视图和URL配置&lt;br&gt;from django.http import HttpResponse&lt;br&gt;from django.urls import path&lt;br&gt;&lt;br&gt;def hello(request):&lt;br&gt;    return HttpResponse(&quot;Hello, Django!&quot;)&lt;br&gt;&lt;br&gt;urlpatterns = [&lt;br&gt;    path('hello/', hello, name='hello'),&lt;br&gt;]" style="text;html=1;strokeColor=#6c8ebf;fillColor=#dae8fc;align=left;verticalAlign=top;whiteSpace=wrap;rounded=1;fontSize=12;spacingLeft=4;spacingRight=4;" vertex="1" parent="1">
                    <mxGeometry x="125" y="700" width="270" height="160" as="geometry"/>
                </mxCell>
                <mxCell id="44" value="# Flask示例&lt;br&gt;from flask import Flask&lt;br&gt;&lt;br&gt;app = Flask(__name__)&lt;br&gt;&lt;br&gt;@app.route(&quot;/hello&quot;)&lt;br&gt;def hello():&lt;br&gt;    return &quot;Hello, Flask!&quot;&lt;br&gt;&lt;br&gt;if __name__ == &quot;__main__&quot;:&lt;br&gt;    app.run(debug=True)" style="text;html=1;strokeColor=#82b366;fillColor=#d5e8d4;align=left;verticalAlign=top;whiteSpace=wrap;rounded=1;fontSize=12;spacingLeft=4;spacingRight=4;" vertex="1" parent="1">
                    <mxGeometry x="405" y="700" width="230" height="160" as="geometry"/>
                </mxCell>
                <mxCell id="45" value="# FastAPI示例&lt;br&gt;from fastapi import FastAPI&lt;br&gt;&lt;br&gt;app = FastAPI()&lt;br&gt;&lt;br&gt;@app.get(&quot;/hello&quot;)&lt;br&gt;def hello():&lt;br&gt;    return {&quot;message&quot;: &quot;Hello, FastAPI!&quot;}&lt;br&gt;&lt;br&gt;# 运行: uvicorn main:app --reload" style="text;html=1;strokeColor=#d79b00;fillColor=#ffe6cc;align=left;verticalAlign=top;whiteSpace=wrap;rounded=1;fontSize=12;spacingLeft=4;spacingRight=4;" vertex="1" parent="1">
                    <mxGeometry x="125" y="870" width="270" height="160" as="geometry"/>
                </mxCell>
                <mxCell id="46" value="# Pyramid示例&lt;br&gt;from wsgiref.simple_server import make_server&lt;br&gt;from pyramid.config import Configurator&lt;br&gt;from pyramid.response import Response&lt;br&gt;&lt;br&gt;def hello(request):&lt;br&gt;    return Response('Hello, Pyramid!')&lt;br&gt;&lt;br&gt;if __name__ == '__main__':&lt;br&gt;    with Configurator() as config:&lt;br&gt;        config.add_route('hello', '/hello')&lt;br&gt;        config.add_view(hello, route_name='hello')&lt;br&gt;        app = config.make_wsgi_app()&lt;br&gt;    server = make_server('0.0.0.0', 6543, app)&lt;br&gt;    server.serve_forever()" style="text;html=1;strokeColor=#d6b656;fillColor=#fff2cc;align=left;verticalAlign=top;whiteSpace=wrap;rounded=1;fontSize=12;spacingLeft=4;spacingRight=4;" vertex="1" parent="1">
                    <mxGeometry x="405" y="870" width="270" height="230" as="geometry"/>
                </mxCell>
                <mxCell id="47" value="全栈框架" style="text;html=1;strokeColor=none;fillColor=none;align=center;verticalAlign=middle;whiteSpace=wrap;rounded=0;fontSize=12;" vertex="1" parent="1">
                    <mxGeometry x="165" y="160" width="60" height="20" as="geometry"/>
                </mxCell>
                <mxCell id="48" value="微框架" style="text;html=1;strokeColor=none;fillColor=none;align=center;verticalAlign=middle;whiteSpace=wrap;rounded=0;fontSize=12;" vertex="1" parent="1">
                    <mxGeometry x="345" y="160" width="60" height="20" as="geometry"/>
                </mxCell>
                <mxCell id="49" value="API框架" style="text;html=1;strokeColor=none;fillColor=none;align=center;verticalAlign=middle;whiteSpace=wrap;rounded=0;fontSize=12;" vertex="1" parent="1">
                    <mxGeometry x="525" y="160" width="60" height="20" as="geometry"/>
                </mxCell>
                <mxCell id="50" value="中间框架" style="text;html=1;strokeColor=none;fillColor=none;align=center;verticalAlign=middle;whiteSpace=wrap;rounded=0;fontSize=12;" vertex="1" parent="1">
                    <mxGeometry x="705" y="160" width="60" height="20" as="geometry"/>
                </mxCell>
            </root>
        </mxGraphModel>
    </diagram>
</mxfile>